<?xml version="1.0" encoding="UTF-8" standalone="no"?>
<svg
   xmlns:dc="http://purl.org/dc/elements/1.1/"
   xmlns:cc="http://creativecommons.org/ns#"
   xmlns:rdf="http://www.w3.org/1999/02/22-rdf-syntax-ns#"
   xmlns:svg="http://www.w3.org/2000/svg"
   xmlns="http://www.w3.org/2000/svg"
   xmlns:sodipodi="http://sodipodi.sourceforge.net/DTD/sodipodi-0.dtd"
   xmlns:inkscape="http://www.inkscape.org/namespaces/inkscape"
   width="338.36453mm"
   height="200.2908mm"
   viewBox="0 0 338.36453 200.2908"
   version="1.1"
   id="svg8"
   inkscape:version="1.0 (4035a4fb49, 2020-05-01)"
   sodipodi:docname="nO.svg">
  <defs
     id="defs2" />
  <sodipodi:namedview
     id="base"
     pagecolor="#ffffff"
     bordercolor="#666666"
     borderopacity="1.0"
     inkscape:pageopacity="0.0"
     inkscape:pageshadow="2"
     inkscape:zoom="0.58912036"
     inkscape:cx="840.5871"
     inkscape:cy="349.91271"
     inkscape:document-units="mm"
     inkscape:current-layer="layer1"
     inkscape:document-rotation="0"
     showgrid="false"
     inkscape:window-width="1920"
     inkscape:window-height="986"
     inkscape:window-x="-11"
     inkscape:window-y="-11"
     inkscape:window-maximized="1"
     fit-margin-top="0"
     fit-margin-left="0"
     fit-margin-right="0"
     fit-margin-bottom="0" />
  <metadata
     id="metadata5">
    <rdf:RDF>
      <cc:Work
         rdf:about="">
        <dc:format>image/svg+xml</dc:format>
        <dc:type
           rdf:resource="http://purl.org/dc/dcmitype/StillImage" />
        <dc:title></dc:title>
      </cc:Work>
    </rdf:RDF>
  </metadata>
  <g
     inkscape:label="Calque 1"
     inkscape:groupmode="layer"
     id="layer1"
     transform="translate(1327.0239,482.7179)">
    <path
       id="path26"
       style="opacity:1;fill:#3f3f3f;fill-opacity:1;stroke:none;stroke-width:0.02544px;stroke-linecap:butt;stroke-linejoin:miter;stroke-opacity:1"
       d="m -1157.366,-462.1945 c -0.085,5.3e-4 -0.18,0.0478 -0.2309,0.11364 l -34.7399,46.01108 c -0.1105,0.13511 -0.058,0.30469 0.013,0.45525 l 34.6204,75.11493 c 0.076,0.11982 0.1921,0.16045 0.3373,0.16427 0.1452,-0.004 0.2621,-0.0444 0.3374,-0.16427 l 34.6203,-75.11493 c 0.071,-0.15056 0.1237,-0.32014 0.013,-0.45525 l -34.7397,-46.01108 c -0.051,-0.0657 -0.1465,-0.11306 -0.231,-0.11364 z" />
    <path
       id="path77"
       style="opacity:1;fill:#ffffff;stroke:none;stroke-width:0.0417347;stroke-linecap:round;paint-order:stroke fill markers"
       inkscape:transform-center-y="-0.044101681"
       d="m -1157.366,-461.32642 -0.2219,0.26461 v 119.16554 l 0.2219,0.44694 0.2222,-0.44694 v -119.16554 z"
       inkscape:transform-center-x="-0.00014391062" />
    <path
       id="path100"
       style="fill:#ffffff;stroke:none;stroke-width:0.02544px;stroke-linecap:butt;stroke-linejoin:miter;stroke-opacity:1"
       d="m -1157.5879,-427.88766 -33.8077,11.63126 -0.325,0.42542 0.1339,0.27469 33.9988,11.15818 v -0.30588 l -34.0376,-11.16607 34.0376,-11.72935 z" />
    <path
       d="m -1157.1438,-427.8877 33.8076,11.63126 0.3247,0.42543 -0.1339,0.27468 -33.9984,11.15818 v -0.30588 l 34.0372,-11.16607 -34.0372,-11.72935 z"
       style="fill:#ffffff;stroke:none;stroke-width:0.02544px;stroke-linecap:butt;stroke-linejoin:miter;stroke-opacity:1"
       id="path100-8" />
    <path
       style="fill:#000000;fill-opacity:1;stroke:none;stroke-width:0.02544px;stroke-linecap:butt;stroke-linejoin:miter;stroke-opacity:1"
       d="m -1123.3362,-416.25644 -33.8076,-44.80537 v 33.17411 z"
       id="path149" />
    <path
       id="path151"
       style="opacity:1;fill:#b7494e;fill-opacity:1;stroke:none;stroke-width:0.0334562;stroke-linecap:round;paint-order:stroke fill markers"
       d="m -1157.1439,-427.59943 v 29.21373 a 17.50874,17.50874 0 0 0 17.2468,-17.50676 17.50874,17.50874 0 0 0 -1.115,-6.14792 z" />
    <path
       d="m -1300.7167,-303.49834 v -21.80964 l 17.5108,18.95204 v -18.78918 h 1.3481 v 22.01695 l -17.5429,-18.74475 v 18.37458 z"
       style="font-style:normal;font-variant:normal;font-weight:normal;font-stretch:normal;font-size:315.369px;line-height:1.25;font-family:GeosansLight-NMS;-inkscape-font-specification:GeosansLight-NMS;fill:#000000;fill-opacity:1;stroke:none;stroke-width:0.789286"
       id="path31" />
    <path
       d="m -1270.4816,-314.32174 q 0,-4.91567 3.0623,-8.02498 3.0622,-3.10933 7.9035,-3.10933 4.8122,0 7.9039,3.10933 3.0915,3.10931 3.0915,8.02498 0,4.91571 -3.0915,8.02502 -3.0917,3.09452 -7.9039,3.09452 -4.8413,0 -7.9035,-3.09452 -3.0623,-3.10931 -3.0623,-8.02502 z m 1.2249,0 q 0,4.33826 2.7417,7.12184 2.7558,2.76878 6.9992,2.76878 4.3022,0 7.0289,-2.76878 2.7416,-2.78358 2.7416,-7.12184 0,-4.33823 -2.7416,-7.1218 -2.7267,-2.7984 -7.0289,-2.7984 -4.2434,0 -6.9992,2.7984 -2.7417,2.78357 -2.7417,7.1218 z"
       style="font-style:normal;font-variant:normal;font-weight:normal;font-stretch:normal;font-size:315.369px;line-height:1.25;font-family:GeosansLight-NMS;-inkscape-font-specification:GeosansLight-NMS;fill:#000000;fill-opacity:1;stroke:none;stroke-width:0.752327"
       id="path33" />
    <path
       d="m -1225.8905,-303.49834 5.4516,-22.28344 7.1257,19.30739 7.1114,-19.33701 5.4516,22.31306 h -1.2306 l -4.4498,-18.19691 -6.8826,18.74476 -6.8966,-18.77439 -4.4787,18.22654 z"
       style="font-style:normal;font-variant:normal;font-weight:normal;font-stretch:normal;font-size:315.369px;line-height:1.25;font-family:GeosansLight-NMS;-inkscape-font-specification:GeosansLight-NMS;fill:#000000;fill-opacity:1;stroke:none;stroke-width:0.745234"
       id="path35" />
    <path
       d="m -1189.1686,-303.49834 8.8715,-22.34267 8.9018,22.34267 h -1.2761 l -7.6257,-19.18894 -7.6259,19.18894 z"
       style="font-style:normal;font-variant:normal;font-weight:normal;font-stretch:normal;font-size:315.369px;line-height:1.25;font-family:GeosansLight-NMS;-inkscape-font-specification:GeosansLight-NMS;fill:#000000;fill-opacity:1;stroke:none;stroke-width:0.767861"
       id="path37" />
    <path
       d="m -1128.2266,-318.17135 v -7.00337 h 1.2141 v 7.00337 z"
       style="font-style:normal;font-variant:normal;font-weight:normal;font-stretch:normal;font-size:315.369px;line-height:1.25;font-family:GeosansLight-NMS;-inkscape-font-specification:GeosansLight-NMS;fill:#000000;fill-opacity:1;stroke:none;stroke-width:0.758084"
       id="path41" />
    <path
       d="m -1114.5824,-320.27385 q 0,-2.25056 1.5992,-3.59793 1.5694,-1.3918 3.8791,-1.3918 3.8202,0 5.4043,2.84283 l -1.1845,0.51821 q -0.6071,-1.00683 -1.4508,-1.48062 -1.0662,-0.66629 -2.769,-0.6811 -1.7916,0 -2.9613,1.00683 -1.2733,1.06606 -1.2733,2.78358 0,1.53987 1.3326,2.70955 0.7552,0.60706 3.0354,1.6287 1.4214,0.63667 2.4431,1.25853 1.0362,0.62187 1.6729,1.25852 1.7619,1.73235 1.7619,4.30864 0,4.13096 -3.4942,5.43392 -1.1399,0.41456 -2.6799,0.41456 -0.059,0 -0.1035,0 v -1.24372 q 2.3393,0 3.6718,-1.14009 1.3621,-1.18449 1.3621,-3.46467 0,-2.14691 -1.6137,-3.58312 -0.4295,-0.39976 -1.3031,-0.87357 -0.8735,-0.4886 -2.2356,-1.09567 -2.5765,-1.15488 -3.524,-1.99885 -1.5695,-1.36218 -1.5695,-3.61273 z"
       style="font-style:normal;font-variant:normal;font-weight:normal;font-stretch:normal;font-size:315.369px;line-height:1.25;font-family:GeosansLight-NMS;-inkscape-font-specification:GeosansLight-NMS;fill:#000000;fill-opacity:1;stroke:none;stroke-width:0.758084"
       id="path43" />
    <path
       d="m -1078.2299,-320.27385 q 0,-2.25056 1.5989,-3.59793 1.5696,-1.3918 3.8794,-1.3918 3.82,0 5.4044,2.84283 l -1.1846,0.51821 q -0.6071,-1.00683 -1.4512,-1.48062 -1.0658,-0.66629 -2.7686,-0.6811 -1.7916,0 -2.9613,1.00683 -1.2732,1.06606 -1.2732,2.78358 0,1.53987 1.3324,2.70955 0.7552,0.60706 3.0354,1.6287 1.4212,0.63667 2.443,1.25853 1.0364,0.62187 1.6731,1.25852 1.7619,1.73235 1.7619,4.30864 0,4.13096 -3.4943,5.43392 -1.1401,0.41456 -2.6798,0.41456 -0.059,0 -0.1039,0 v -1.24372 q 2.3395,0 3.672,-1.14009 1.3624,-1.18449 1.3624,-3.46467 0,-2.14691 -1.614,-3.58312 -0.4295,-0.39976 -1.303,-0.87357 -0.8736,-0.4886 -2.2357,-1.09567 -2.5763,-1.15488 -3.524,-1.99885 -1.5693,-1.36218 -1.5693,-3.61273 z"
       style="font-style:normal;font-variant:normal;font-weight:normal;font-stretch:normal;font-size:315.369px;line-height:1.25;font-family:GeosansLight-NMS;-inkscape-font-specification:GeosansLight-NMS;fill:#000000;fill-opacity:1;stroke:none;stroke-width:0.758084"
       id="path45" />
    <path
       d="m -1054.2654,-303.49834 v -21.64678 h 1.2436 v 9.60929 l 9.6686,-9.60929 h 1.7619 l -10.3645,10.33479 11.2825,11.31199 h -1.7324 l -10.4384,-10.46803 -0.1777,0.19248 v 10.27555 z"
       style="font-style:normal;font-variant:normal;font-weight:normal;font-stretch:normal;font-size:315.369px;line-height:1.25;font-family:GeosansLight-NMS;-inkscape-font-specification:GeosansLight-NMS;fill:#000000;fill-opacity:1;stroke:none;stroke-width:0.758084"
       id="path47" />
    <path
       d="m -1030.8894,-325.2644 7.206,12.77116 v 8.99487 h 1.4588 v -8.99487 l 7.258,-12.77116 h -1.667 l -6.3377,11.05907 -6.2511,-11.05907 z"
       style="font-style:normal;font-variant:normal;font-weight:normal;font-stretch:normal;font-size:315.369px;line-height:1.25;font-family:GeosansLight-NMS;-inkscape-font-specification:GeosansLight-NMS;fill:#000000;fill-opacity:1;stroke:none;stroke-width:0.891765"
       id="path49" />
    <path
       id="path31-5"
       style="font-style:normal;font-variant:normal;font-weight:normal;font-stretch:normal;font-size:315.369px;line-height:1.25;font-family:GeosansLight-NMS;-inkscape-font-specification:GeosansLight-NMS;fill:#000000;fill-opacity:1;stroke:none;stroke-width:0.789286"
       d="m -1159.4291,-303.49834 v -21.80965 l 17.5109,18.95205 v -18.78918 h 1.3481 v 22.01695 l -17.5427,-18.74476 v 18.37459 z" />
  </g>
</svg>
